<?xml version="1.0" standalone="no"?>
<!DOCTYPE svg PUBLIC "-//W3C//DTD SVG 20010904//EN"
 "http://www.w3.org/TR/2001/REC-SVG-20010904/DTD/svg10.dtd">
<svg version="1.0" xmlns="http://www.w3.org/2000/svg"
 width="512.000000pt" height="512.000000pt" viewBox="0 0 512.000000 512.000000"
 preserveAspectRatio="xMidYMid meet">
<metadata>
Created by potrace 1.11, written by Peter Selinger 2001-2013
</metadata>
<g transform="translate(0.000000,512.000000) scale(0.100000,-0.100000)"
fill="#000000" stroke="none">
<path d="M351 5095 c-41 -13 -87 -33 -103 -45 -15 -11 -31 -20 -35 -20 -19 0
-132 -133 -158 -185 -58 -120 -55 24 -54 -2295 l0 -2135 23 -65 c58 -168 188
-291 357 -335 46 -12 375 -15 2174 -15 1869 0 2128 2 2185 16 130 30 267 139
325 258 58 119 55 -21 55 2281 0 1865 -2 2127 -15 2180 -47 186 -199 335 -380
374 -35 7 -705 10 -2175 10 l-2125 0 -74 -24z"/>
</g>
</svg>
